<svg xmlns="http://www.w3.org/2000/svg" xmlns:xlink="http://www.w3.org/1999/xlink" width="800" zoomAndPan="magnify" viewBox="0 0 600 749.999995" height="1000" preserveAspectRatio="xMidYMid meet" version="1.0"><defs><clipPath id="be86c0504b"><path d="M 40.214844 9.570312 L 559.964844 9.570312 L 559.964844 740 L 40.214844 740 Z M 40.214844 9.570312 " clip-rule="nonzero"/></clipPath></defs><path fill="#0a373b" d="M 147.710938 738.378906 C 140.394531 738.378906 132.609375 736.832031 123.914062 733.644531 C 120.265625 732.3125 115.941406 730.773438 111.519531 729.453125 C 106.890625 728.050781 102.140625 726.773438 97.550781 725.535156 L 96.191406 725.171875 L 91.257812 724.226562 C 81.066406 722.226562 72.796875 719.160156 65.980469 714.851562 C 62.167969 712.449219 58.566406 709.902344 55.082031 707.4375 C 52.933594 705.910156 50.78125 704.292969 48.691406 702.640625 L 45.566406 700.117188 L 42.144531 697.234375 L 42.730469 694.617188 L 43.152344 692.375 C 44.695312 684.421875 47.316406 676.699219 50.941406 669.429688 C 51.84375 667.671875 52.699219 665.878906 53.550781 664.085938 C 54.421875 662.332031 55.28125 660.515625 56.089844 658.710938 C 56.738281 657.320312 57.417969 655.917969 58.101562 654.519531 L 59.222656 652.203125 L 62.546875 645.804688 L 64.417969 641.660156 C 67.78125 634.28125 72.128906 627.382812 77.335938 621.164062 C 78.625 619.664062 79.875 618.117188 81.117188 616.570312 C 82.378906 615.066406 83.640625 613.5 84.839844 611.9375 C 85.804688 610.722656 86.808594 609.507812 87.808594 608.289062 L 89.40625 606.34375 L 91.289062 604.175781 L 91.457031 603.539062 C 91.488281 603.402344 91.515625 603.265625 91.570312 603.140625 C 92.210938 601.519531 93.171875 600.339844 94.101562 599.199219 L 94.253906 599.011719 L 97.671875 594.292969 C 103.804688 585.847656 110.695312 577.78125 118.152344 570.324219 C 121.8125 566.660156 125.367188 562.933594 128.71875 559.238281 C 132.722656 554.832031 136.875 550.332031 141.410156 545.488281 L 145.128906 540.984375 C 147.523438 538.085938 150.242188 535.023438 153.4375 531.621094 L 153.960938 531.066406 L 153.859375 530.3125 L 153.839844 530.019531 C 153.859375 529.78125 153.929688 529.445312 154.195312 529.046875 L 154.652344 528.542969 C 154.671875 528.523438 160.519531 523.933594 160.519531 523.933594 L 163.378906 521.726562 L 163.527344 521.601562 L 164.363281 520.824219 C 165.257812 519.988281 166.152344 519.15625 167.066406 518.34375 C 167.660156 517.824219 168.261719 517.289062 168.867188 516.746094 C 172.039062 513.921875 175.316406 510.996094 179.316406 508.820312 C 181.695312 507.558594 184.480469 506.796875 187.355469 506.628906 L 189.136719 506.527344 L 188.84375 504.765625 C 188.789062 504.421875 188.742188 504.078125 188.710938 503.730469 L 188.703125 503.632812 L 188.664062 503.464844 L 188.628906 503.339844 C 188.144531 501.0625 188.425781 498.46875 189.484375 495.714844 C 190.40625 493.304688 191.644531 491.199219 192.941406 489.074219 L 195.339844 485.261719 C 195.832031 484.484375 197.574219 481.84375 198.984375 480.03125 C 200.199219 478.433594 201.484375 476.964844 203.042969 475.394531 L 203.144531 475.285156 L 203.230469 475.164062 C 208.660156 467.128906 214.738281 459.355469 221.300781 452.0625 C 224.519531 448.480469 227.667969 444.738281 230.660156 440.945312 L 241.625 426.988281 L 244.726562 422.386719 C 250.160156 414.308594 256.292969 406.34375 262.953125 398.71875 C 266.117188 395.125 269.203125 391.328125 272.125 387.449219 L 282.75 373.253906 L 285.722656 368.5625 C 290.839844 360.414062 296.667969 352.234375 303.050781 344.246094 C 306.300781 340.191406 309.128906 336.367188 311.683594 332.5625 C 315.148438 327.519531 318.460938 322.492188 321.527344 317.816406 L 322.457031 316.167969 C 323.054688 315.097656 323.65625 314.03125 324.234375 312.949219 C 326.613281 308.550781 329.082031 304.339844 331.773438 300.089844 C 334.664062 295.503906 337.445312 291.472656 340.277344 287.765625 C 342.855469 284.3125 345.871094 280.214844 348.765625 275.933594 C 351.507812 271.921875 355.140625 266.628906 358.886719 261.347656 L 361.777344 256.597656 C 366.960938 248.117188 372.859375 239.96875 379.3125 232.382812 C 382.449219 228.679688 385.503906 224.859375 388.394531 221.023438 L 399.101562 206.859375 L 402.140625 202.21875 C 407.515625 194 413.582031 185.984375 420.175781 178.394531 C 423.421875 174.65625 426.5 170.859375 429.328125 167.101562 L 439.976562 152.917969 L 442.960938 148.234375 C 448.316406 139.824219 454.242188 131.707031 460.570312 124.101562 C 463.578125 120.496094 466.578125 116.632812 469.480469 112.625 L 479.859375 98.226562 L 482.769531 93.503906 C 488.003906 85 493.835938 76.808594 500.105469 69.164062 C 503.160156 65.433594 506.136719 61.554688 508.953125 57.632812 L 519.308594 43.210938 L 522.222656 38.484375 C 524.902344 34.164062 527.695312 29.980469 530.527344 26.054688 C 531.789062 24.3125 533.3125 22.234375 535.027344 20.050781 C 536.453125 18.25 538.21875 16.179688 540.476562 14.5 C 542.726562 12.8125 545.234375 11.765625 547.542969 11.554688 C 548.023438 11.496094 548.476562 11.46875 548.9375 11.46875 C 550.574219 11.46875 552.957031 11.820312 554.976562 13.484375 C 556.199219 14.539062 557.113281 15.976562 557.511719 17.507812 C 557.894531 18.925781 557.9375 20.460938 557.648438 22.207031 C 557.066406 25.496094 555.660156 28.332031 554.359375 30.667969 L 551.867188 35.636719 C 547.371094 44.582031 542.28125 53.253906 536.746094 61.398438 C 534.046875 65.367188 531.433594 69.503906 528.976562 73.683594 L 519.96875 88.980469 L 517.488281 93.949219 C 513.011719 102.90625 507.875 111.550781 502.21875 119.644531 C 499.484375 123.554688 496.800781 127.644531 494.238281 131.796875 L 485.746094 145.53125 L 485.171875 145.179688 L 483.488281 147.914062 L 484.148438 148.320312 L 482.320312 151.8125 C 477.707031 160.609375 472.445312 169.175781 466.675781 177.269531 C 463.875 181.199219 461.167969 185.273438 458.632812 189.375 L 449.292969 204.472656 L 446.714844 209.386719 C 441.972656 218.394531 436.734375 226.976562 431.144531 234.894531 C 428.359375 238.835938 425.671875 242.921875 423.160156 247.035156 L 413.894531 262.167969 L 411.339844 267.09375 C 406.773438 275.910156 401.550781 284.496094 395.820312 292.617188 C 393.046875 296.542969 390.359375 300.628906 387.832031 304.757812 C 386.730469 306.570312 385.621094 308.378906 384.511719 310.1875 C 382.523438 313.425781 380.53125 316.664062 378.59375 319.925781 L 376.113281 324.878906 C 371.542969 334.082031 366.546875 342.796875 361.261719 350.792969 C 358.652344 354.742188 356.089844 358.90625 353.636719 363.171875 C 350.074219 369.375 347.320312 374.109375 344.710938 378.523438 L 342.214844 383.492188 C 337.605469 392.597656 332.273438 401.140625 326.375 408.878906 C 322.871094 413.5 320.25 417.136719 317.871094 420.683594 L 307.949219 435.398438 L 305.179688 440.207031 C 300.226562 448.816406 294.632812 457.167969 288.546875 465.03125 C 285.601562 468.835938 282.738281 472.800781 280.03125 476.8125 L 278.097656 479.683594 L 275.585938 484.578125 L 275.457031 484.878906 C 275.292969 485.277344 275.125 485.691406 274.914062 486.128906 L 270.296875 495.996094 C 268.953125 498.863281 267.371094 501.648438 265.59375 504.273438 C 262.433594 509.039062 258.390625 513.683594 253.566406 518.089844 L 250.722656 520.726562 L 250.472656 521 C 248.285156 523.351562 245.691406 525.957031 242.570312 527.972656 L 242.492188 528.027344 L 240.058594 530.054688 L 241.046875 531.304688 C 241.871094 532.304688 242.457031 533.734375 242.582031 535.035156 C 242.785156 536.832031 242.476562 538.457031 242.113281 539.953125 C 241.839844 541.035156 241.519531 542.023438 241.183594 543.066406 C 241.03125 543.542969 240.875 544.015625 240.726562 544.496094 C 239.566406 547.902344 238.503906 550.695312 237.398438 553.238281 C 236.789062 555.027344 236.136719 556.707031 235.503906 558.332031 L 235.230469 559.035156 L 235.195312 559.402344 C 235.191406 559.851562 235.152344 560.117188 235.121094 560.261719 C 234.9375 561.117188 234.648438 561.777344 234.371094 562.417969 C 233.78125 563.761719 233.128906 565.0625 232.417969 566.304688 C 231.734375 567.511719 230.953125 568.738281 230.089844 569.953125 L 229.898438 570.214844 L 229.847656 570.304688 C 226.972656 575.542969 223.628906 580.734375 219.625 586.1875 C 216.410156 590.558594 213.554688 594.671875 210.902344 598.765625 L 200.714844 614.445312 L 197.871094 619.539062 C 195.324219 624.105469 192.59375 628.648438 189.753906 633.042969 C 188.335938 635.242188 186.859375 637.441406 185.371094 639.59375 L 185.144531 639.914062 C 183.734375 641.910156 182.136719 644.175781 179.523438 645.644531 C 179.179688 645.832031 178.800781 646 178.421875 646.152344 L 177.808594 646.394531 L 177.542969 647 C 176.875 648.519531 176.421875 649.625 175.847656 651.09375 C 170.75 663.761719 166.132812 677.386719 162.136719 691.574219 C 160.21875 698.40625 158.820312 705.230469 157.976562 711.851562 C 157.457031 715.804688 157.039062 719.933594 156.699219 724.476562 L 156.347656 730.796875 L 156.164062 737.894531 L 153.5 738.105469 L 151.734375 738.230469 L 150.484375 738.304688 C 149.5625 738.355469 148.636719 738.378906 147.710938 738.378906 Z M 147.710938 738.378906 " fill-opacity="1" fill-rule="nonzero"/><g clip-path="url(#be86c0504b)"><path fill="#fc89a6" d="M 559.066406 17.097656 C 558.574219 15.230469 557.484375 13.527344 556 12.246094 C 553.472656 10.167969 550.25 9.625 547.394531 9.953125 C 544.492188 10.222656 541.695312 11.578125 539.515625 13.214844 C 537.191406 14.941406 535.367188 17.035156 533.761719 19.058594 C 532.171875 21.089844 530.707031 23.070312 529.226562 25.117188 C 526.285156 29.191406 523.5 33.375 520.855469 37.644531 L 518 42.273438 L 507.644531 56.695312 C 504.839844 60.605469 501.914062 64.425781 498.863281 68.144531 C 492.492188 75.914062 486.664062 84.109375 481.402344 92.660156 L 478.554688 97.289062 L 468.179688 111.683594 C 465.359375 115.578125 462.414062 119.382812 459.335938 123.074219 C 452.910156 130.792969 446.996094 138.90625 441.609375 147.371094 L 438.691406 151.953125 L 428.046875 166.136719 C 425.152344 169.980469 422.117188 173.710938 418.964844 177.339844 C 412.378906 184.921875 406.296875 192.925781 400.796875 201.339844 L 397.820312 205.890625 L 387.109375 220.058594 C 384.210938 223.90625 381.203125 227.667969 378.089844 231.34375 C 371.574219 239.003906 365.652344 247.171875 360.402344 255.761719 L 357.578125 260.417969 C 354.148438 265.253906 350.78125 270.136719 347.4375 275.035156 C 344.734375 279.03125 341.886719 282.925781 339 286.792969 C 335.941406 290.796875 333.105469 294.96875 330.414062 299.230469 C 327.71875 303.492188 325.203125 307.78125 322.816406 312.195312 C 321.964844 313.792969 321.0625 315.355469 320.183594 316.933594 C 316.949219 321.871094 313.695312 326.796875 310.351562 331.664062 C 307.675781 335.652344 304.800781 339.5 301.796875 343.242188 C 295.542969 351.070312 289.699219 359.210938 284.363281 367.703125 L 281.464844 372.289062 L 270.84375 386.484375 C 267.953125 390.324219 264.917969 394.054688 261.742188 397.664062 C 255.144531 405.21875 248.996094 413.15625 243.394531 421.488281 L 240.363281 425.996094 L 229.398438 439.949219 C 226.421875 443.730469 223.324219 447.410156 220.105469 450.988281 C 213.511719 458.320312 207.421875 466.089844 201.898438 474.265625 C 200.546875 475.632812 199.140625 477.179688 197.71875 479.042969 C 196.292969 480.875 194.542969 483.519531 193.980469 484.40625 L 191.570312 488.238281 C 190.273438 490.363281 188.960938 492.589844 187.988281 495.136719 C 187.019531 497.652344 186.421875 500.6875 187.082031 503.765625 C 187.089844 503.800781 187.105469 503.839844 187.109375 503.875 C 187.144531 504.261719 187.195312 504.644531 187.261719 505.027344 C 184.246094 505.203125 181.199219 506.003906 178.546875 507.410156 C 173.613281 510.097656 169.820312 513.796875 166 517.144531 C 164.792969 518.214844 163.617188 519.328125 162.433594 520.425781 L 162.339844 520.5 L 159.527344 522.671875 L 155.574219 525.777344 L 154.148438 526.902344 C 153.921875 527.089844 153.648438 527.273438 153.457031 527.464844 L 152.9375 528.046875 C 152.394531 528.800781 152.253906 529.496094 152.230469 530.027344 L 152.25 530.390625 C 152.25 530.414062 152.261719 530.476562 152.269531 530.523438 C 149.382812 533.589844 146.566406 536.71875 143.890625 539.964844 L 140.238281 544.390625 C 135.96875 548.949219 131.730469 553.535156 127.527344 558.160156 C 124.117188 561.921875 120.609375 565.59375 117.019531 569.1875 C 109.519531 576.6875 102.601562 584.769531 96.371094 593.351562 L 93.007812 598 C 92.011719 599.226562 90.847656 600.601562 90.085938 602.527344 C 89.972656 602.800781 89.914062 603.105469 89.835938 603.402344 L 88.160156 605.328125 C 86.632812 607.207031 85.074219 609.0625 83.570312 610.957031 C 82.367188 612.519531 81.132812 614.050781 79.867188 615.566406 C 78.632812 617.097656 77.394531 618.632812 76.105469 620.132812 C 70.808594 626.453125 66.371094 633.5 62.953125 641 L 61.125 645.0625 L 57.773438 651.507812 C 56.726562 653.691406 55.644531 655.859375 54.625 658.054688 C 53.816406 659.851562 52.976562 661.632812 52.097656 663.398438 C 51.253906 665.175781 50.40625 666.953125 49.503906 668.714844 C 45.824219 676.09375 43.148438 683.980469 41.578125 692.078125 L 41.160156 694.269531 L 40.363281 697.835938 L 44.554688 701.367188 L 47.695312 703.898438 C 49.804688 705.566406 51.957031 707.183594 54.15625 708.75 C 57.746094 711.289062 61.328125 713.816406 65.121094 716.207031 C 73.066406 721.230469 82.078125 724.0625 90.957031 725.804688 L 95.773438 726.722656 C 100.917969 728.109375 106.003906 729.457031 111.058594 730.992188 C 115.183594 732.222656 119.265625 733.65625 123.363281 735.152344 C 131.871094 738.269531 141.148438 740.4375 150.582031 739.90625 L 151.847656 739.832031 L 153.625 739.707031 L 157.734375 739.382812 L 157.949219 730.886719 L 158.300781 724.59375 C 158.613281 720.40625 159.023438 716.222656 159.570312 712.054688 C 160.433594 705.273438 161.839844 698.570312 163.679688 692.011719 C 167.539062 678.328125 172.035156 664.867188 177.34375 651.675781 C 177.910156 650.230469 178.359375 649.140625 179.011719 647.644531 C 179.457031 647.46875 179.890625 647.273438 180.3125 647.046875 C 183.394531 645.3125 185.167969 642.660156 186.691406 640.507812 C 188.195312 638.335938 189.667969 636.136719 191.101562 633.914062 C 193.972656 629.472656 196.695312 624.9375 199.273438 620.320312 L 202.058594 615.320312 L 212.25 599.640625 C 215.007812 595.382812 217.90625 591.234375 220.917969 587.136719 C 224.664062 582.039062 228.175781 576.6875 231.257812 571.078125 L 231.394531 570.882812 C 232.265625 569.664062 233.078125 568.402344 233.816406 567.097656 C 234.558594 565.796875 235.230469 564.457031 235.832031 563.082031 C 236.125 562.414062 236.472656 561.621094 236.683594 560.621094 C 236.765625 560.265625 236.800781 559.847656 236.804688 559.417969 C 236.8125 559.390625 236.824219 559.367188 236.835938 559.339844 C 237.539062 557.527344 238.25 555.722656 238.871094 553.878906 C 240.132812 550.96875 241.234375 547.984375 242.261719 544.972656 C 242.734375 543.433594 243.253906 541.988281 243.671875 540.332031 C 244.074219 538.691406 244.410156 536.890625 244.179688 534.882812 C 244.027344 533.304688 243.328125 531.550781 242.289062 530.285156 L 242.3125 530.265625 L 243.445312 529.324219 C 246.558594 527.308594 249.1875 524.742188 251.585938 522.167969 C 251.667969 522.082031 251.738281 521.988281 251.816406 521.902344 L 254.648438 519.273438 C 259.1875 515.128906 263.4375 510.429688 266.921875 505.171875 C 268.753906 502.472656 270.367188 499.628906 271.75 496.675781 L 275.699219 488.238281 L 276.355469 486.832031 C 276.617188 486.296875 276.816406 485.796875 277.011719 485.3125 C 277.84375 483.699219 278.660156 482.09375 279.480469 480.5 L 281.363281 477.707031 C 284.054688 473.71875 286.875 469.820312 289.816406 466.011719 C 295.964844 458.070312 301.5625 449.714844 306.574219 441.007812 L 309.28125 436.296875 L 319.207031 421.578125 C 321.890625 417.574219 324.722656 413.714844 327.648438 409.855469 C 333.777344 401.820312 339.101562 393.199219 343.648438 384.210938 L 346.089844 379.339844 C 349.109375 374.234375 352.078125 369.105469 355.03125 363.972656 C 357.429688 359.792969 359.949219 355.691406 362.601562 351.679688 C 368.140625 343.296875 373.09375 334.566406 377.546875 325.597656 L 379.976562 320.746094 C 382.992188 315.675781 386.128906 310.648438 389.203125 305.597656 C 391.714844 301.492188 394.359375 297.472656 397.132812 293.542969 C 402.925781 285.335938 408.148438 276.746094 412.765625 267.832031 L 415.265625 263.007812 L 424.527344 247.871094 C 427.039062 243.765625 429.683594 239.75 432.457031 235.820312 C 438.246094 227.617188 443.457031 219.023438 448.136719 210.132812 L 450.660156 205.316406 L 459.996094 190.21875 C 462.527344 186.128906 465.191406 182.121094 467.984375 178.203125 C 473.816406 170.023438 479.078125 161.453125 483.742188 152.558594 L 486.265625 147.742188 L 484.332031 146.546875 L 484.089844 146.394531 L 484.332031 146.546875 L 486.265625 147.738281 L 495.605469 132.640625 C 498.132812 128.542969 500.773438 124.511719 503.535156 120.5625 C 509.296875 112.320312 514.433594 103.65625 518.925781 94.664062 L 521.351562 89.796875 L 530.359375 74.496094 C 532.800781 70.347656 535.371094 66.28125 538.074219 62.300781 C 543.71875 53.992188 548.796875 45.324219 553.304688 36.355469 L 555.761719 31.449219 C 557.273438 28.734375 558.636719 25.835938 559.230469 22.46875 C 559.507812 20.792969 559.5625 18.953125 559.066406 17.097656 Z M 208.132812 598.5 L 198.644531 613.101562 L 191.660156 623.855469 C 190.75 625.253906 189.792969 626.621094 188.785156 627.953125 L 183.882812 634.445312 C 182.234375 636.574219 180.628906 638.949219 179.066406 640.445312 C 178.910156 640.59375 178.757812 640.722656 178.605469 640.855469 L 176.347656 639.003906 C 175.972656 639.679688 175.59375 640.351562 175.222656 641.027344 C 174.929688 641.558594 174.652344 642.097656 174.363281 642.628906 C 174.300781 642.742188 174.242188 642.859375 174.179688 642.972656 C 173.65625 643.949219 173.125 644.925781 172.613281 645.914062 C 172.585938 645.964844 172.558594 646.015625 172.53125 646.066406 C 172.265625 646.789062 172.019531 647.515625 171.757812 648.242188 C 171.226562 649.707031 170.6875 651.175781 170.1875 652.652344 C 169.585938 654.378906 168.863281 656.058594 167.976562 657.664062 C 166.359375 660.644531 164.773438 663.648438 163.253906 666.691406 C 162.789062 667.628906 162.34375 668.578125 161.964844 669.554688 C 161.023438 672.066406 160.117188 674.585938 159.242188 677.121094 L 159.304688 677.144531 C 158.925781 678.1875 158.144531 679.402344 157.324219 679.109375 C 157.269531 679.09375 157.226562 679.054688 157.179688 679.023438 C 156.496094 678.605469 156.398438 677.191406 156.757812 676.207031 L 156.695312 676.183594 L 157.964844 672.796875 C 159.890625 666.390625 162.109375 660.015625 165.300781 654.117188 C 166.484375 651.917969 167.636719 649.710938 168.765625 647.488281 C 169.089844 646.847656 169.417969 646.214844 169.738281 645.574219 C 169.773438 645.503906 169.8125 645.433594 169.847656 645.363281 C 170.261719 644.566406 170.691406 643.777344 171.109375 642.984375 C 171.476562 642.292969 171.839844 641.597656 172.210938 640.910156 C 172.496094 640.378906 172.785156 639.851562 173.074219 639.324219 C 173.445312 638.648438 173.816406 637.976562 174.191406 637.304688 C 172.726562 636.242188 171.273438 635.164062 169.785156 634.140625 C 168.371094 633.246094 166.972656 632.320312 165.554688 631.433594 C 165.277344 632.15625 164.992188 632.875 164.730469 633.597656 C 164.730469 633.605469 164.726562 633.613281 164.722656 633.621094 C 164.515625 634.183594 164.246094 634.707031 163.9375 635.210938 C 163.738281 635.546875 163.53125 635.875 163.285156 636.183594 C 162.382812 637.304688 161.507812 638.457031 160.636719 639.613281 C 160.402344 639.925781 160.15625 640.226562 159.925781 640.539062 C 159.796875 640.714844 159.695312 640.910156 159.578125 641.089844 C 159.386719 641.378906 159.1875 641.664062 159.023438 641.96875 C 158.828125 642.339844 158.644531 642.71875 158.453125 643.089844 C 157.984375 643.996094 157.515625 644.902344 157.0625 645.820312 L 154.625 644.621094 L 155.273438 642.753906 C 155.386719 642.433594 155.527344 642.125 155.648438 641.8125 C 155.921875 641.097656 156.214844 640.394531 156.539062 639.703125 C 156.789062 639.164062 157.050781 638.632812 157.332031 638.105469 C 158.253906 636.382812 159.308594 634.734375 160.515625 633.191406 C 160.519531 633.1875 160.523438 633.183594 160.523438 633.183594 C 160.894531 632.707031 161.25 632.222656 161.605469 631.738281 C 162.058594 631.121094 162.503906 630.492188 162.933594 629.859375 C 161.644531 629.105469 160.359375 628.34375 159.035156 627.660156 C 157.988281 627.085938 156.929688 626.535156 155.871094 625.980469 C 155.445312 626.621094 155.027344 627.265625 154.609375 627.914062 C 154.199219 628.550781 153.808594 629.203125 153.402344 629.847656 C 152.570312 631.171875 151.71875 632.484375 150.917969 633.832031 C 150.738281 634.199219 150.566406 634.570312 150.386719 634.9375 C 150.125 635.472656 149.871094 636.011719 149.613281 636.546875 C 149.285156 637.234375 148.945312 637.921875 148.625 638.613281 C 147.898438 640.171875 147.195312 641.738281 146.515625 643.320312 C 145.421875 645.832031 144.226562 648.304688 142.929688 650.722656 C 140.519531 655.203125 138.265625 659.78125 136.160156 664.4375 C 135.535156 665.878906 134.921875 667.332031 134.378906 668.808594 C 132.984375 672.59375 131.703125 676.421875 130.488281 680.265625 L 127.894531 679.460938 C 128.378906 677.707031 128.824219 675.941406 129.339844 674.195312 C 132.085938 664.476562 135.9375 655.019531 140.800781 646.148438 C 142.417969 643.199219 144.070312 640.269531 145.746094 637.351562 C 146.132812 636.671875 146.523438 635.992188 146.917969 635.316406 C 147.21875 634.800781 147.507812 634.28125 147.8125 633.765625 C 147.863281 633.679688 147.910156 633.589844 147.964844 633.503906 C 148.890625 631.917969 149.882812 630.371094 150.855469 628.816406 C 151.296875 628.113281 151.714844 627.394531 152.164062 626.699219 C 152.589844 626.039062 153.023438 625.382812 153.457031 624.726562 C 151.421875 623.6875 149.378906 622.675781 147.328125 621.675781 C 147.289062 621.777344 147.238281 621.878906 147.199219 621.984375 C 146.929688 622.675781 146.546875 623.285156 146.074219 623.839844 C 146.023438 623.898438 145.988281 623.964844 145.933594 624.023438 C 145.285156 624.730469 144.683594 625.496094 144.070312 626.25 C 143.726562 626.671875 143.351562 627.066406 143.019531 627.503906 C 142.742188 627.882812 142.492188 628.277344 142.289062 628.695312 C 141.945312 629.390625 141.648438 630.105469 141.34375 630.816406 C 141.179688 631.199219 140.992188 631.570312 140.835938 631.957031 L 138.316406 630.945312 L 138.660156 629.59375 L 138.734375 629.296875 C 139.144531 627.753906 139.746094 626.269531 140.511719 624.875 C 141.03125 623.921875 141.652344 623.03125 142.320312 622.171875 C 142.605469 621.804688 142.878906 621.425781 143.191406 621.074219 C 143.484375 620.746094 143.75 620.410156 144.039062 620.078125 C 142.996094 619.578125 141.949219 619.074219 140.910156 618.574219 C 140.054688 618.164062 139.191406 617.773438 138.332031 617.375 C 137.871094 618.21875 137.394531 619.054688 136.929688 619.894531 C 136.421875 620.816406 135.910156 621.734375 135.394531 622.652344 C 134.605469 624.0625 133.832031 625.480469 133.027344 626.878906 C 132.707031 627.433594 132.367188 627.984375 132.042969 628.539062 C 131.515625 629.449219 130.96875 630.355469 130.433594 631.261719 C 129.445312 632.929688 128.484375 634.613281 127.472656 636.269531 C 125.5625 639.398438 123.789062 642.617188 122.164062 645.910156 C 120.164062 649.960938 118.246094 654.050781 116.40625 658.175781 L 115.011719 657.554688 L 113.925781 657.070312 C 115.652344 653.199219 117.449219 649.359375 119.316406 645.554688 C 120.273438 643.019531 121.253906 640.484375 122.273438 637.96875 C 123.070312 635.984375 124.046875 634.070312 125.1875 632.257812 C 125.730469 631.398438 126.304688 630.566406 126.851562 629.710938 C 127.4375 628.796875 128.039062 627.890625 128.632812 626.984375 C 129.027344 626.382812 129.414062 625.777344 129.8125 625.175781 C 130.445312 624.222656 131.046875 623.246094 131.691406 622.300781 C 131.925781 621.957031 132.132812 621.597656 132.359375 621.253906 C 132.800781 620.578125 133.246094 619.910156 133.660156 619.21875 C 133.765625 619.042969 133.882812 618.867188 133.988281 618.691406 C 134.511719 617.824219 135.054688 616.972656 135.585938 616.113281 C 133.269531 615.074219 130.945312 614.078125 128.617188 613.101562 C 128.5 613.261719 128.378906 613.417969 128.265625 613.578125 C 127.75 614.304688 127.234375 615.03125 126.71875 615.757812 C 126.210938 616.46875 125.714844 617.183594 125.21875 617.898438 C 124.609375 618.777344 123.996094 619.65625 123.40625 620.550781 C 123.242188 620.84375 123.089844 621.140625 122.929688 621.433594 C 122.488281 622.214844 122.0625 623.003906 121.640625 623.792969 C 121.367188 624.300781 121.078125 624.800781 120.8125 625.3125 C 120.589844 625.730469 120.371094 626.148438 120.148438 626.5625 C 119.523438 627.742188 118.902344 628.921875 118.3125 630.121094 C 117.023438 632.652344 115.621094 635.136719 114.113281 637.554688 C 111.304688 642.023438 108.605469 646.574219 105.996094 651.183594 C 105.199219 652.605469 104.421875 654.042969 103.703125 655.507812 C 101.914062 659.292969 100.167969 663.09375 98.460938 666.914062 L 97.292969 666.375 L 98.523438 666.945312 C 97.800781 668.523438 96.597656 670.390625 95.804688 670.03125 C 95.75 670.007812 95.714844 669.953125 95.671875 669.914062 C 95.066406 669.351562 95.382812 667.285156 96.058594 665.804688 L 96 665.777344 L 98.382812 660.6875 C 102.378906 651.101562 106.777344 641.578125 112.34375 632.75 C 113.964844 630.195312 115.609375 627.65625 117.242188 625.109375 C 117.792969 624.253906 118.335938 623.394531 118.890625 622.539062 C 119.410156 621.734375 119.917969 620.921875 120.441406 620.121094 L 120.460938 620.089844 L 122.722656 616.730469 L 123.015625 616.289062 L 124.132812 614.71875 L 125.691406 612.527344 C 125.808594 612.359375 125.933594 612.195312 126.050781 612.027344 C 124.273438 611.296875 122.492188 610.574219 120.710938 609.855469 L 120.53125 610.144531 L 119.300781 612.757812 L 118.390625 614.695312 L 117.914062 615.707031 C 117.53125 616.519531 117.09375 617.300781 116.621094 618.058594 C 116.246094 618.664062 115.851562 619.257812 115.417969 619.824219 L 114.773438 620.664062 L 113.027344 622.953125 L 109.988281 626.933594 C 109.429688 627.664062 108.90625 628.417969 108.410156 629.191406 L 104.628906 635.136719 L 99.492188 643.210938 L 96.882812 648.765625 C 96.199219 650.222656 95.363281 651.601562 94.386719 652.882812 L 88.953125 660 C 88.394531 660.730469 87.867188 661.484375 87.375 662.257812 L 83.59375 668.207031 L 81.28125 666.785156 L 82.746094 663.996094 C 85.460938 658.847656 88.574219 653.917969 92.0625 649.246094 C 93.734375 647.011719 95.320312 644.714844 96.816406 642.359375 L 102.339844 633.679688 L 103.808594 630.890625 C 105.566406 627.554688 107.507812 624.324219 109.589844 621.1875 C 110.082031 620.449219 110.578125 619.710938 111.085938 618.984375 C 111.703125 618.097656 112.328125 617.21875 112.972656 616.351562 C 113.023438 616.28125 113.074219 616.210938 113.125 616.136719 C 113.84375 615.175781 114.542969 614.195312 115.230469 613.210938 C 115.609375 612.664062 115.980469 612.109375 116.355469 611.554688 C 116.867188 610.789062 117.382812 610.03125 117.875 609.257812 L 118.148438 608.828125 C 116.933594 608.339844 115.722656 607.851562 114.511719 607.363281 C 113.960938 608.054688 113.390625 608.734375 112.84375 609.429688 L 112.546875 609.9375 L 111.617188 611.519531 L 109.546875 615.042969 L 109.382812 615.320312 C 108.9375 616.085938 108.460938 616.832031 107.953125 617.554688 C 107.46875 618.242188 106.953125 618.910156 106.410156 619.554688 C 106.367188 619.601562 106.335938 619.652344 106.292969 619.699219 C 104.148438 622.230469 102.019531 624.78125 99.925781 627.363281 C 99.28125 628.15625 98.660156 628.972656 98.089844 629.820312 L 93.847656 636.433594 L 93.902344 636.46875 C 93.308594 637.378906 92.285156 638.355469 91.554688 637.878906 C 91.507812 637.847656 91.476562 637.800781 91.433594 637.761719 C 90.867188 637.199219 91.078125 635.828125 91.636719 634.976562 L 92.328125 635.429688 L 91.582031 634.9375 L 93.53125 632.007812 C 96.324219 627.09375 99.285156 622.246094 102.753906 617.777344 C 103.25 617.136719 103.726562 616.484375 104.246094 615.863281 C 104.28125 615.820312 104.3125 615.773438 104.351562 615.726562 C 104.878906 615.097656 105.390625 614.460938 105.910156 613.824219 C 106.878906 612.644531 107.832031 611.449219 108.773438 610.242188 C 109.152344 609.761719 109.53125 609.28125 109.902344 608.792969 C 110.003906 608.664062 110.105469 608.539062 110.203125 608.410156 C 110.761719 607.703125 111.335938 607.015625 111.894531 606.3125 C 110.289062 605.664062 108.691406 605.011719 107.097656 604.351562 C 106.421875 605.105469 105.753906 605.867188 105.078125 606.621094 C 104.671875 607.082031 104.265625 607.539062 103.859375 607.996094 C 102.691406 609.316406 101.511719 610.628906 100.355469 611.953125 C 99.914062 612.457031 99.480469 612.96875 99.042969 613.476562 C 98.53125 614.0625 98.023438 614.65625 97.515625 615.246094 C 95.875 617.144531 94.226562 619.035156 92.597656 620.949219 C 91.359375 622.457031 90.113281 623.96875 88.929688 625.527344 C 87.785156 627.113281 86.660156 628.714844 85.558594 630.335938 C 84.242188 632.351562 82.992188 634.410156 81.707031 636.445312 L 78.109375 642.710938 L 76.296875 646.742188 C 73 654.203125 69.808594 661.675781 66.699219 669.214844 C 65.984375 671.03125 65.265625 672.851562 64.621094 674.699219 C 64.023438 676.558594 63.449219 678.433594 62.898438 680.3125 C 62.265625 682.632812 61.71875 684.980469 61.125 687.3125 L 59.648438 694.382812 L 58.152344 694.101562 L 56.980469 693.886719 L 58.367188 687.195312 L 60.011719 680.566406 C 60.570312 677.714844 61.082031 674.832031 61.746094 671.988281 C 62.300781 669.757812 62.941406 667.527344 63.894531 665.425781 C 64.78125 663.480469 65.628906 661.523438 66.546875 659.597656 L 69.398438 653.882812 C 70.023438 652.730469 70.625 651.566406 71.183594 650.382812 C 72.5625 647.324219 74.195312 644.390625 75.726562 641.410156 L 79.121094 635.480469 L 82.734375 629.683594 C 84.144531 627.144531 85.523438 624.566406 87.03125 622.0625 C 88.246094 620.113281 89.546875 618.1875 91.097656 616.484375 C 92.105469 615.386719 93.101562 614.292969 94.101562 613.199219 C 94.542969 612.71875 94.972656 612.230469 95.421875 611.757812 L 95.664062 611.507812 L 96.941406 610.214844 L 99.902344 607.203125 C 100.15625 606.964844 100.394531 606.707031 100.644531 606.464844 C 101.097656 606.027344 101.542969 605.582031 101.984375 605.132812 C 102.214844 604.894531 102.460938 604.671875 102.6875 604.429688 C 103.117188 603.957031 103.582031 603.515625 104.027344 603.058594 C 103.519531 602.84375 103.011719 602.632812 102.503906 602.414062 C 101.351562 601.949219 100.230469 601.433594 99.105469 600.914062 C 98.519531 600.644531 98.132812 600.476562 96.96875 599.90625 L 96.792969 599.820312 L 104.359375 590.769531 C 105.4375 589.5 106.5625 588.269531 107.730469 587.082031 C 111.523438 583.21875 115.347656 579.390625 119.195312 575.589844 C 121.273438 573.539062 123.167969 571.316406 124.875 568.949219 L 131.410156 559.945312 C 135.304688 555.65625 139.25 551.410156 143.207031 547.175781 L 147.21875 542.957031 C 150.769531 544.007812 154.28125 545.109375 157.675781 546.445312 C 161.25 547.78125 164.628906 549.570312 167.890625 551.601562 C 174.632812 555.851562 181.785156 560.078125 189.335938 563.308594 L 193.25 565.320312 L 193.902344 564.054688 L 194.492188 562.90625 C 191.535156 561.449219 188.585938 560.019531 185.699219 558.492188 C 184.582031 557.878906 183.496094 557.214844 182.433594 556.507812 C 178.984375 554.199219 175.589844 551.785156 172.066406 549.464844 C 170.164062 548.214844 168.128906 547.136719 165.992188 546.292969 C 163.277344 545.222656 160.496094 544.292969 157.699219 543.558594 C 154.929688 542.503906 152.117188 541.605469 149.304688 540.753906 L 152.023438 537.894531 C 153.179688 536.691406 154.382812 535.539062 155.621094 534.421875 C 155.785156 534.277344 155.949219 534.136719 156.109375 533.992188 C 156.667969 534.195312 157.25 534.382812 157.859375 534.546875 L 159.585938 534.941406 L 160.894531 535.207031 C 161.453125 535.3125 161.976562 535.417969 162.453125 535.535156 C 162.683594 535.59375 162.910156 535.652344 163.113281 535.714844 C 163.320312 535.777344 163.625 535.890625 163.875 535.980469 C 164.9375 536.363281 166.007812 536.785156 167.09375 537.230469 L 171.875 539.253906 L 186.816406 547.242188 C 188.824219 548.34375 190.867188 549.398438 192.789062 550.632812 C 194.722656 551.855469 196.609375 553.144531 198.453125 554.484375 C 206.148438 560.09375 213.785156 565.589844 221.292969 571.335938 C 221.984375 571.890625 222.359375 572.132812 223.539062 573.148438 C 221.660156 575.835938 219.75 578.503906 217.789062 581.144531 C 216.054688 583.480469 214.515625 585.960938 213.1875 588.566406 Z M 157.183594 683.753906 C 156.925781 684.507812 156.195312 684.511719 155.378906 684.238281 C 155.371094 684.234375 155.367188 684.234375 155.359375 684.230469 C 154.535156 683.953125 154.136719 682.894531 154.410156 682.128906 C 154.679688 681.363281 155.488281 681.183594 156.3125 681.46875 C 156.316406 681.472656 156.316406 681.476562 156.324219 681.476562 C 157.132812 681.773438 157.445312 683 157.183594 683.753906 Z M 154.546875 686.664062 C 154.546875 686.664062 154.546875 686.664062 154.550781 686.664062 C 155.371094 686.941406 155.769531 687.972656 155.574219 688.59375 C 155.378906 689.207031 154.652344 689.175781 153.828125 688.914062 C 153.824219 688.910156 153.824219 688.910156 153.820312 688.910156 C 152.988281 688.644531 152.53125 687.753906 152.730469 687.128906 C 152.929688 686.503906 153.722656 686.390625 154.546875 686.664062 Z M 153.136719 691.046875 C 153.144531 691.046875 153.152344 691.054688 153.160156 691.058594 C 153.96875 691.34375 154.207031 692.9375 153.886719 693.988281 C 153.5625 695.050781 152.789062 695.160156 151.957031 694.914062 C 151.121094 694.664062 150.796875 693.304688 151.125 692.230469 C 151.453125 691.15625 152.304688 690.785156 153.136719 691.046875 Z M 88.476562 682.222656 C 88.882812 681.289062 89.753906 681.070312 90.550781 681.417969 C 91.347656 681.765625 91.453125 683.28125 91.050781 684.214844 C 90.648438 685.148438 89.878906 685.140625 89.082031 684.792969 C 88.28125 684.445312 88.070312 683.15625 88.476562 682.222656 Z M 92.15625 677.761719 C 91.359375 677.410156 91.257812 675.878906 91.777344 674.730469 C 92.292969 673.578125 93.214844 673.246094 94.007812 673.601562 C 94.804688 673.957031 94.765625 675.769531 94.253906 676.914062 C 93.742188 678.058594 92.953125 678.113281 92.15625 677.761719 Z M 118.441406 670.777344 L 119.703125 671.339844 L 118.382812 670.75 L 119.617188 668.003906 C 121.476562 662.742188 123.464844 657.492188 126.300781 652.679688 C 127.660156 650.375 128.945312 648.03125 130.148438 645.644531 L 134.820312 636.96875 L 136.082031 637.632812 L 137.222656 638.234375 L 132.875 646.269531 L 130.972656 651.816406 C 130.476562 653.269531 129.835938 654.664062 129.042969 655.980469 L 124.699219 663.332031 C 124.261719 664.09375 123.851562 664.867188 123.488281 665.664062 L 120.859375 671.859375 L 120.921875 671.886719 C 120.542969 672.734375 119.773438 673.683594 118.976562 673.332031 C 118.925781 673.308594 118.882812 673.269531 118.839844 673.238281 C 118.175781 672.796875 118.085938 671.578125 118.441406 670.777344 Z M 125.53125 715.964844 L 122.824219 716.136719 C 122.660156 713.558594 122.613281 710.972656 122.6875 708.390625 C 122.480469 706.742188 122.304688 705.074219 122.195312 703.402344 C 122.101562 702.082031 122.214844 700.761719 122.523438 699.476562 C 123.097656 697.101562 123.769531 694.757812 124.535156 692.457031 C 124.78125 691.753906 124.980469 691.039062 125.160156 690.316406 C 125.617188 688.46875 126.148438 686.640625 126.71875 684.828125 L 129.304688 685.660156 C 129.148438 686.472656 128.972656 687.273438 128.835938 688.085938 C 128.03125 692.570312 127.179688 696.976562 126.222656 701.425781 C 125.769531 703.558594 125.488281 705.730469 125.421875 707.914062 C 125.324219 710.597656 125.363281 713.285156 125.53125 715.964844 Z M 118.777344 677.289062 C 118.511719 677.894531 117.804688 677.804688 117.015625 677.46875 C 117.003906 677.464844 116.996094 677.460938 116.984375 677.457031 C 116.1875 677.113281 115.828125 676.160156 116.097656 675.542969 C 116.371094 674.921875 117.164062 674.871094 117.960938 675.222656 C 117.964844 675.222656 117.96875 675.226562 117.972656 675.230469 C 118.761719 675.585938 119.046875 676.675781 118.777344 677.289062 Z M 116.140625 679.421875 C 116.152344 679.429688 116.160156 679.4375 116.171875 679.445312 C 116.945312 679.800781 117.300781 680.714844 117.089844 681.207031 C 116.882812 681.699219 116.1875 681.578125 115.398438 681.25 C 115.386719 681.242188 115.378906 681.242188 115.367188 681.238281 C 114.5625 680.898438 114.144531 680.078125 114.359375 679.574219 C 114.570312 679.074219 115.339844 679.078125 116.140625 679.421875 Z M 114.632812 682.960938 C 114.644531 682.964844 114.652344 682.972656 114.660156 682.976562 C 115.4375 683.335938 115.609375 684.722656 115.253906 685.570312 C 114.894531 686.425781 114.140625 686.410156 113.335938 686.074219 L 113.332031 686.074219 C 112.527344 685.742188 112.265625 684.542969 112.625 683.679688 C 112.988281 682.816406 113.832031 682.621094 114.632812 682.960938 Z M 111.886719 668.613281 C 108.46875 676.832031 105.363281 685.148438 102.476562 693.570312 C 101.101562 697.605469 99.960938 701.734375 99.121094 705.929688 C 98.070312 711.082031 97.273438 716.285156 96.734375 721.515625 L 94.03125 721.238281 C 94.542969 716.285156 95.28125 711.355469 96.242188 706.46875 C 96.613281 703.3125 97.039062 700.148438 97.59375 697.003906 C 98.015625 694.523438 98.671875 692.074219 99.542969 689.707031 C 101.15625 685.324219 102.945312 681.015625 104.910156 676.796875 C 105.535156 675.511719 106.105469 674.195312 106.675781 672.882812 C 108.128906 669.515625 109.714844 666.210938 111.375 662.941406 L 112.433594 663.484375 L 113.789062 664.183594 C 113.15625 665.664062 112.480469 667.121094 111.886719 668.613281 Z M 87.546875 692.34375 C 86.859375 693.941406 86.011719 694.132812 85.210938 693.789062 C 84.410156 693.449219 84.5 691.441406 85.1875 689.84375 C 85.875 688.242188 86.894531 687.652344 87.695312 688 C 88.492188 688.34375 88.230469 690.746094 87.546875 692.34375 Z M 153.230469 649.640625 C 151.976562 651.523438 150.78125 653.445312 149.652344 655.402344 C 149.160156 656.777344 148.6875 658.15625 148.257812 659.546875 C 147.910156 660.636719 147.433594 661.65625 146.816406 662.613281 C 145.671875 664.378906 144.574219 666.1875 143.527344 668.03125 C 143.214844 668.601562 142.925781 669.1875 142.6875 669.792969 C 142.074219 671.339844 141.503906 672.90625 140.957031 674.476562 L 138.390625 673.597656 L 138.914062 671.359375 C 139.914062 667.226562 141.609375 663.273438 143.898438 659.691406 C 144.992188 657.976562 146.035156 656.242188 147.046875 654.488281 C 148.28125 652.328125 149.589844 650.207031 150.972656 648.136719 Z M 85.957031 646.355469 C 85.21875 645.894531 84.984375 644.933594 85.320312 644.390625 C 85.65625 643.851562 86.441406 643.9375 87.179688 644.398438 C 87.914062 644.867188 88.0625 645.953125 87.730469 646.488281 C 87.394531 647.027344 86.699219 646.816406 85.964844 646.355469 C 85.960938 646.355469 85.960938 646.355469 85.957031 646.355469 Z M 88.515625 642.285156 C 87.78125 641.820312 87.640625 640.71875 88.070312 640.054688 C 88.5 639.390625 89.324219 639.414062 90.054688 639.886719 C 90.058594 639.886719 90.058594 639.890625 90.0625 639.894531 C 90.785156 640.367188 90.816406 641.621094 90.390625 642.277344 C 89.96875 642.933594 89.257812 642.753906 88.527344 642.292969 C 88.523438 642.289062 88.519531 642.289062 88.515625 642.285156 Z M 84.828125 651.195312 C 84.261719 652.121094 83.492188 652.03125 82.746094 651.578125 C 82 651.128906 82.011719 649.757812 82.582031 648.820312 C 83.152344 647.890625 84.0625 647.753906 84.800781 648.210938 C 84.808594 648.214844 84.808594 648.21875 84.816406 648.222656 C 85.539062 648.691406 85.390625 650.273438 84.828125 651.195312 Z M 235.125 552.285156 C 234.816406 553.015625 234.464844 553.726562 234.140625 554.449219 C 233.855469 554.214844 233.585938 554 233.347656 553.792969 L 230.640625 551.554688 C 228.816406 550.089844 227.027344 548.570312 225.195312 547.117188 C 217.59375 540.9375 209.089844 535.941406 200.214844 532.007812 L 195.402344 529.910156 C 190.328125 527.289062 185.210938 524.777344 180.078125 522.324219 L 175.113281 519.878906 L 172.753906 518.664062 C 173.109375 518.269531 173.484375 517.878906 173.828125 517.480469 C 174.925781 516.199219 176.046875 514.976562 177.226562 513.851562 L 176.753906 514.960938 C 179.613281 516.1875 182.460938 517.441406 185.289062 518.738281 C 187.585938 519.800781 189.828125 520.972656 192.003906 522.265625 C 196.546875 524.96875 201.230469 527.371094 206.074219 529.480469 L 208.695312 530.628906 C 211.410156 532.152344 214.105469 533.703125 216.777344 535.292969 C 218.949219 536.59375 221.054688 538 223.082031 539.519531 C 227.308594 542.691406 231.707031 545.578125 236.300781 548.195312 L 236.695312 548.417969 C 236.199219 549.71875 235.679688 551.007812 235.125 552.285156 Z M 239.625 534.371094 C 239.90625 534.933594 240.109375 535.617188 240.179688 536.390625 C 240.125 538.796875 239.042969 541.574219 238.199219 544.285156 C 238.046875 544.71875 237.882812 545.148438 237.730469 545.582031 C 236.839844 544.960938 235.953125 544.332031 235.050781 543.726562 C 234.355469 543.253906 233.679688 542.75 233.03125 542.214844 C 230.902344 540.496094 228.765625 538.789062 226.59375 537.113281 C 225.429688 536.199219 224.144531 535.460938 222.792969 534.855469 L 217.613281 532.632812 C 215.097656 531.144531 212.566406 529.6875 210.019531 528.257812 C 208.132812 527.226562 206.257812 526.171875 204.355469 525.171875 C 203.613281 524.777344 202.890625 524.347656 202.1875 523.882812 C 199.886719 522.402344 197.578125 520.933594 195.242188 519.496094 C 193.984375 518.714844 192.628906 518.117188 191.222656 517.660156 L 185.832031 516.003906 C 183.390625 514.890625 180.933594 513.816406 178.472656 512.753906 C 179.433594 511.929688 180.429688 511.160156 181.503906 510.515625 C 183.671875 509.53125 186 509.0625 188.394531 509.042969 C 188.660156 509.039062 188.925781 509.015625 189.195312 509.023438 C 189.832031 509.046875 190.472656 509.097656 191.113281 509.171875 C 191.273438 509.25 191.429688 509.328125 191.582031 509.398438 C 191.933594 509.554688 192.269531 509.683594 192.574219 509.796875 L 194.378906 510.445312 L 196.835938 511.316406 L 201.457031 512.949219 C 204.507812 514.015625 207.578125 515.054688 210.65625 516.074219 L 210.726562 516.125 L 211.957031 517.027344 L 212.269531 516.601562 C 212.898438 516.808594 213.527344 517.015625 214.160156 517.21875 C 218.648438 519.703125 222.960938 522.445312 227.03125 525.457031 C 228.621094 526.644531 230.261719 527.742188 231.929688 528.804688 C 232.65625 529.265625 233.375 529.738281 234.121094 530.175781 C 234.257812 530.261719 234.402344 530.351562 234.542969 530.4375 C 235.1875 530.835938 235.855469 531.238281 236.488281 531.636719 C 236.667969 531.839844 236.847656 532.046875 237.03125 532.25 C 237.40625 532.679688 237.773438 533.113281 238.160156 533.539062 L 238.636719 533.171875 C 239.046875 533.539062 239.371094 533.902344 239.625 534.371094 Z M 141.433594 737.074219 L 139.917969 737.238281 C 139.867188 736.886719 139.808594 736.527344 139.75 736.171875 C 139.632812 735.453125 139.527344 734.730469 139.425781 734.007812 C 139.386719 733.726562 139.335938 733.441406 139.304688 733.15625 C 138.277344 725.582031 138.601562 717.820312 139.992188 710.339844 C 140.660156 706.757812 141.355469 703.1875 142.105469 699.628906 C 143.007812 695.25 144.109375 690.917969 145.367188 686.636719 C 145.6875 685.308594 145.980469 683.972656 146.324219 682.652344 C 148.152344 675.292969 150.878906 668.171875 154.226562 661.402344 C 155.832031 658.160156 157.390625 654.902344 158.902344 651.625 C 159.957031 649.324219 161.058594 647.054688 162.144531 644.773438 C 162.472656 644.085938 162.792969 643.394531 163.121094 642.707031 C 163.378906 642.171875 163.628906 641.628906 163.886719 641.09375 C 164.125 640.597656 164.355469 640.09375 164.59375 639.597656 L 165.964844 640.261719 L 167.035156 640.78125 C 166.847656 641.167969 166.671875 641.558594 166.484375 641.945312 C 166.183594 642.566406 165.894531 643.195312 165.597656 643.816406 C 165.265625 644.503906 164.945312 645.195312 164.617188 645.882812 C 163.65625 647.898438 162.679688 649.902344 161.746094 651.929688 C 160.890625 654.414062 160.046875 656.902344 159.242188 659.398438 C 158.605469 661.359375 157.824219 663.273438 156.910156 665.117188 C 155.207031 668.542969 153.574219 672 152.023438 675.5 C 151.558594 676.582031 151.121094 677.675781 150.734375 678.789062 C 149.746094 681.640625 148.832031 684.515625 147.96875 687.402344 C 146.816406 691.328125 145.800781 695.292969 144.945312 699.292969 C 144.667969 701.894531 144.433594 704.492188 144.300781 707.085938 C 144.183594 709.128906 143.949219 711.15625 143.59375 713.167969 C 142.933594 716.894531 142.4375 720.660156 142.132812 724.453125 C 142.0625 725.621094 142.011719 726.796875 142.039062 727.964844 C 142.085938 730.21875 142.234375 732.46875 142.425781 734.710938 C 142.480469 735.339844 142.523438 735.96875 142.589844 736.597656 C 142.597656 736.710938 142.605469 736.828125 142.617188 736.941406 Z M 482.800781 145.601562 L 476.398438 155.953125 C 475.566406 157.300781 474.683594 158.617188 473.75 159.902344 L 464.671875 172.398438 C 463.039062 174.648438 461.621094 177.039062 460.429688 179.550781 L 455.890625 189.117188 L 447.199219 203.175781 L 440.796875 213.527344 C 439.964844 214.875 439.078125 216.191406 438.148438 217.476562 L 429.128906 230.015625 C 427.507812 232.273438 426.097656 234.675781 424.917969 237.191406 L 420.421875 246.78125 L 411.792969 260.886719 L 405.4375 271.269531 C 404.609375 272.621094 403.730469 273.941406 402.804688 275.230469 L 393.78125 287.777344 C 392.160156 290.035156 390.75 292.4375 389.570312 294.953125 L 385.078125 304.535156 C 382.214844 309.246094 379.296875 313.914062 376.476562 318.660156 L 370.292969 329.167969 C 369.496094 330.539062 368.648438 331.882812 367.753906 333.191406 L 359.089844 345.996094 C 357.539062 348.300781 356.203125 350.746094 355.101562 353.292969 L 350.894531 363 L 342.585938 377.269531 L 336.34375 387.6875 C 335.515625 389.035156 334.640625 390.351562 333.714844 391.632812 C 330.699219 395.789062 327.628906 399.898438 324.519531 403.964844 C 322.816406 406.144531 321.355469 408.46875 320.058594 410.933594 L 315.148438 420.3125 L 305.90625 434.019531 L 299.101562 444.113281 C 298.21875 445.425781 297.28125 446.707031 296.300781 447.953125 L 286.738281 460.085938 C 285.019531 462.265625 283.503906 464.601562 282.214844 467.066406 L 281.101562 469.195312 C 280.761719 469.722656 280.433594 470.25 280.121094 470.777344 C 279.503906 471.824219 278.921875 472.875 278.347656 473.925781 C 277.289062 475.308594 276.230469 476.699219 275.171875 478.074219 C 274.042969 479.535156 272.863281 480.953125 271.632812 482.316406 C 267.625 486.730469 263.496094 490.984375 259.054688 494.738281 C 256.660156 496.78125 254.371094 498.816406 252.066406 500.980469 C 249.148438 503.714844 246.070312 506.289062 242.785156 508.613281 C 240.996094 509.640625 239.148438 510.558594 237.28125 511.417969 L 237.292969 511.402344 C 239.265625 508.574219 241.324219 505.804688 243.46875 503.097656 C 247.949219 497.460938 252.074219 491.546875 255.832031 485.402344 L 257.863281 482.074219 L 265.226562 471.691406 C 267.230469 468.878906 269.320312 466.132812 271.488281 463.449219 C 276.027344 457.859375 280.214844 451.988281 284.035156 445.882812 L 286.101562 442.578125 L 293.574219 432.269531 C 295.605469 429.480469 297.722656 426.753906 299.921875 424.09375 C 304.515625 418.546875 308.761719 412.722656 312.648438 406.65625 L 314.746094 403.375 L 322.324219 393.144531 C 324.386719 390.375 326.53125 387.667969 328.757812 385.035156 C 333.410156 379.535156 337.71875 373.753906 341.664062 367.730469 L 343.796875 364.46875 L 341.628906 362.832031 L 336.375 369.8125 C 335.691406 370.71875 334.976562 371.605469 334.234375 372.464844 L 326.992188 380.855469 C 325.691406 382.367188 324.527344 383.992188 323.507812 385.703125 L 319.625 392.226562 L 312.5625 401.761719 L 307.382812 408.792969 C 306.707031 409.710938 306.003906 410.601562 305.265625 411.46875 L 298.113281 419.9375 C 296.828125 421.457031 295.679688 423.09375 294.679688 424.816406 L 290.863281 431.382812 L 283.902344 440.988281 L 278.792969 448.074219 C 278.128906 448.996094 277.429688 449.894531 276.703125 450.769531 L 269.640625 459.3125 C 268.367188 460.847656 267.238281 462.496094 266.253906 464.226562 L 262.507812 470.832031 L 255.644531 480.507812 L 250.609375 487.648438 C 249.957031 488.578125 249.269531 489.484375 248.550781 490.367188 L 241.574219 498.980469 C 240.320312 500.527344 239.207031 502.1875 238.242188 503.933594 L 234.5625 510.574219 L 232.609375 513.386719 C 232.453125 513.445312 232.296875 513.511719 232.136719 513.566406 C 231.605469 513.789062 230.199219 514.210938 229.015625 514.570312 C 227.179688 515.109375 225.269531 515.578125 223.390625 516.035156 C 223.339844 516.007812 223.292969 515.976562 223.242188 515.949219 C 226.117188 512.132812 228.980469 508.308594 231.804688 504.453125 C 234.574219 500.679688 237.402344 496.949219 240.289062 493.269531 C 246.3125 485.585938 251.894531 477.535156 256.960938 469.191406 L 259.691406 464.671875 L 258.425781 463.824219 L 257.4375 463.160156 L 250.8125 472.941406 C 249.945312 474.210938 249.039062 475.453125 248.105469 476.671875 L 238.902344 488.472656 C 237.234375 490.585938 235.691406 492.796875 234.292969 495.089844 L 228.917969 503.804688 C 226.300781 507.359375 223.652344 510.894531 221 514.421875 C 219.242188 513.59375 217.558594 512.636719 215.960938 511.554688 L 221.445312 504.0625 C 224.019531 500.550781 226.675781 497.101562 229.414062 493.71875 C 235.125 486.65625 240.484375 479.304688 245.460938 471.707031 L 248.148438 467.59375 L 246.917969 466.695312 L 245.960938 465.992188 L 239.453125 474.878906 C 238.605469 476.035156 237.726562 477.171875 236.816406 478.277344 L 227.964844 489.078125 C 226.371094 491.015625 224.910156 493.070312 223.601562 495.207031 L 218.605469 503.351562 L 213.777344 509.945312 C 213.21875 509.492188 212.652344 509.050781 212.128906 508.566406 C 210.554688 507.109375 209.210938 505.425781 208.21875 503.605469 C 208.355469 503.441406 208.484375 503.269531 208.625 503.105469 L 215.59375 495.207031 C 216.847656 493.789062 217.980469 492.265625 218.964844 490.648438 L 222.734375 484.492188 L 229.683594 475.609375 L 234.835938 469.101562 C 235.511719 468.253906 236.214844 467.433594 236.945312 466.636719 L 244.125 458.925781 C 245.417969 457.542969 246.589844 456.054688 247.617188 454.460938 L 251.554688 448.410156 L 258.738281 439.71875 L 256.652344 437.980469 L 248.929688 447.332031 C 246.84375 449.875 244.683594 452.355469 242.457031 454.773438 C 237.804688 459.820312 233.519531 465.199219 229.644531 470.863281 L 227.550781 473.929688 L 220.082031 483.484375 C 218.066406 486.085938 215.976562 488.621094 213.8125 491.097656 C 211.34375 493.925781 208.996094 496.855469 206.761719 499.871094 C 206.609375 499.28125 206.484375 498.6875 206.371094 498.101562 C 206.273438 497.285156 206.164062 496.585938 206.105469 495.644531 C 205.972656 493.863281 205.878906 492.082031 205.828125 490.300781 L 205.828125 490.25 L 206.648438 489.285156 C 208.390625 487.234375 210.214844 485.25 212.113281 483.335938 C 216.078125 479.34375 219.707031 475.042969 222.972656 470.460938 L 224.742188 467.980469 L 223.578125 466.996094 L 222.671875 466.226562 L 218.261719 471.417969 C 217.6875 472.09375 217.085938 472.742188 216.453125 473.367188 L 210.289062 479.445312 C 209.179688 480.535156 208.199219 481.746094 207.355469 483.054688 L 205.832031 485.417969 L 205.949219 483.308594 C 206.019531 482.378906 206.140625 481.414062 206.226562 480.492188 L 206.671875 477.523438 L 207.171875 474.804688 L 209.246094 472.152344 C 210.21875 470.902344 211.246094 469.695312 212.316406 468.527344 L 222.738281 457.125 C 224.613281 455.078125 226.296875 452.859375 227.761719 450.5 L 233.351562 441.507812 L 243.566406 428.507812 L 251.0625 418.910156 C 252.039062 417.664062 253.0625 416.449219 254.121094 415.269531 L 264.457031 403.769531 C 266.308594 401.691406 267.960938 399.449219 269.398438 397.066406 L 274.828125 387.964844 L 284.738281 374.710938 L 291.941406 364.882812 C 292.875 363.597656 293.867188 362.359375 294.882812 361.140625 L 304.773438 349.230469 C 306.53125 347.070312 308.085938 344.753906 309.417969 342.304688 C 311.125 339.210938 312.75 336.0625 314.40625 332.941406 C 317.53125 328.390625 320.558594 323.777344 323.589844 319.164062 C 325.851562 315.785156 328.003906 312.332031 330.195312 308.910156 C 331.046875 307.570312 331.949219 306.261719 332.902344 304.988281 C 336 300.875 339.011719 296.738281 342.15625 292.675781 C 343.84375 290.480469 345.324219 288.136719 346.578125 285.667969 L 351.484375 276.316406 C 354.609375 271.789062 357.710938 267.25 360.90625 262.765625 L 367.964844 252.871094 C 368.890625 251.589844 369.863281 250.339844 370.882812 249.128906 L 380.898438 237.398438 C 382.714844 235.300781 384.332031 233.042969 385.730469 230.644531 L 391.097656 221.53125 L 401.0625 208.351562 L 408.429688 198.667969 C 409.390625 197.40625 410.398438 196.183594 411.449219 194.996094 L 421.703125 183.4375 C 423.542969 181.355469 425.1875 179.105469 426.613281 176.71875 L 432.03125 167.617188 L 441.957031 154.382812 L 449.207031 144.597656 C 450.144531 143.320312 451.132812 142.078125 452.164062 140.875 L 462.199219 129.113281 C 463.996094 126.992188 465.59375 124.710938 466.96875 122.292969 L 472.195312 113.078125 L 481.859375 99.664062 L 488.960938 89.773438 C 489.882812 88.488281 490.855469 87.234375 491.871094 86.015625 L 501.773438 74.15625 C 503.554688 72.027344 505.132812 69.734375 506.492188 67.308594 L 511.664062 58.074219 L 521.304688 44.652344 L 528.421875 34.78125 C 529.351562 33.496094 530.324219 32.246094 531.347656 31.035156 L 536.332031 25.136719 C 538.007812 23.160156 539.609375 21.210938 541.289062 19.640625 C 543.085938 17.96875 544.84375 16.492188 546.613281 15.613281 C 547.523438 15.15625 548.539062 14.855469 549.558594 14.75 C 549.667969 15.164062 549.746094 15.609375 549.753906 16.097656 C 549.792969 17.527344 549.402344 18.972656 548.882812 20.507812 C 547.863281 23.523438 546.296875 26.371094 544.496094 29.097656 C 541.578125 33.539062 538.027344 37.75 534.640625 42.027344 L 534.640625 42.03125 C 527.480469 50.90625 521.179688 60.46875 515.09375 70.097656 L 511.601562 75.179688 L 512.816406 76.007812 L 513.84375 76.710938 C 516.386719 72.878906 518.960938 69.070312 521.5625 65.277344 C 522.59375 63.808594 523.660156 62.359375 524.765625 60.949219 C 528.347656 56.355469 531.960938 51.792969 535.621094 47.269531 C 537.597656 44.828125 539.453125 42.28125 541.171875 39.660156 C 543.339844 36.335938 545.617188 32.980469 547.527344 29.382812 C 549.222656 26.683594 550.703125 23.785156 551.683594 20.671875 C 552.179688 19.152344 552.558594 17.390625 552.445312 15.621094 C 552.433594 15.433594 552.410156 15.238281 552.386719 15.046875 C 552.984375 15.261719 553.535156 15.582031 554.019531 16.023438 C 555.40625 17.59375 555.632812 19.925781 555.121094 22.332031 C 554.609375 24.742188 553.503906 27.148438 552.21875 29.445312 L 546.023438 39.882812 C 545.214844 41.246094 544.355469 42.578125 543.449219 43.878906 L 534.632812 56.574219 C 533.050781 58.859375 531.683594 61.285156 530.550781 63.820312 L 526.230469 73.484375 L 517.847656 87.726562 L 511.648438 98.199219 C 510.839844 99.558594 509.976562 100.886719 509.066406 102.183594 L 500.167969 114.792969 C 498.5625 117.058594 497.160156 119.457031 495.992188 121.972656 L 491.492188 131.546875 Z M 156.757812 676.207031 L 156.839844 676.234375 Z M 273.273438 444.566406 L 274.480469 445.496094 L 273.855469 446.734375 C 272.691406 449.03125 271.164062 451.050781 269.277344 452.789062 C 268.375 453.621094 267.550781 454.519531 266.8125 455.480469 L 264.089844 459.03125 L 261.933594 457.378906 L 264.472656 454.074219 L 265.46875 451.492188 C 265.730469 450.816406 266.132812 450.238281 266.664062 449.769531 L 269.636719 447.152344 C 269.941406 446.886719 270.21875 446.59375 270.460938 446.277344 L 272.328125 443.84375 Z M 511.660156 75.21875 L 512.816406 76.007812 L 513.902344 76.75 C 512.824219 78.320312 511.207031 80.144531 510.484375 79.660156 C 510.453125 79.636719 510.4375 79.589844 510.410156 79.558594 C 509.855469 78.925781 510.628906 76.722656 511.660156 75.21875 Z M 494.695312 103.457031 C 493.960938 102.988281 494.476562 100.871094 495.503906 99.257812 C 496.53125 97.644531 497.695312 97.160156 498.425781 97.628906 C 498.4375 97.636719 498.441406 97.65625 498.453125 97.664062 C 499.121094 98.195312 498.359375 100.640625 497.355469 102.222656 C 496.328125 103.828125 495.429688 103.921875 494.695312 103.457031 Z M 500.507812 94.40625 C 499.777344 93.933594 499.84375 92.539062 500.457031 91.601562 C 501.066406 90.664062 501.988281 90.546875 502.714844 91.023438 C 502.726562 91.03125 502.734375 91.042969 502.742188 91.050781 C 503.433594 91.554688 503.214844 93.140625 502.617188 94.058594 C 502.019531 94.976562 501.269531 94.882812 500.550781 94.433594 C 500.535156 94.421875 500.519531 94.417969 500.507812 94.40625 Z M 505.128906 87.363281 C 504.398438 86.882812 504.636719 85.25 505.40625 84.097656 C 506.171875 82.949219 507.175781 82.71875 507.898438 83.203125 C 507.910156 83.207031 507.914062 83.21875 507.921875 83.226562 C 508.605469 83.742188 508.183594 85.617188 507.429688 86.75 C 506.664062 87.890625 505.859375 87.84375 505.132812 87.367188 C 505.132812 87.367188 505.128906 87.367188 505.128906 87.363281 Z M 269.445312 410.167969 C 263.5 419.1875 257.429688 428.171875 250.617188 436.566406 C 247.355469 440.585938 244.152344 444.660156 241.023438 448.792969 L 229.277344 463.878906 L 227.125 462.222656 L 238.066406 448.199219 L 244.261719 438.691406 C 245.886719 436.195312 247.644531 433.777344 249.539062 431.472656 L 260 418.597656 C 261.070312 417.269531 262.113281 415.921875 263.113281 414.542969 L 270.667969 403.84375 L 271.457031 404.414062 L 270.613281 403.804688 C 271.667969 402.332031 273.269531 400.65625 273.976562 401.164062 C 274.023438 401.195312 274.042969 401.253906 274.078125 401.300781 C 274.5625 401.976562 273.804688 404.011719 272.8125 405.390625 L 272.867188 405.429688 Z M 283.914062 387.5 C 284.625 388 284.542969 389.34375 283.929688 390.210938 C 283.320312 391.074219 282.410156 391.132812 281.699219 390.628906 C 281.691406 390.621094 281.683594 390.609375 281.675781 390.601562 C 281 390.074219 281.238281 388.558594 281.835938 387.707031 C 282.441406 386.855469 283.183594 386.996094 283.886719 387.480469 C 283.894531 387.488281 283.90625 387.492188 283.914062 387.5 Z M 279.292969 394.019531 C 280 394.523438 279.757812 396.089844 278.992188 397.152344 C 278.230469 398.21875 277.242188 398.386719 276.535156 397.878906 C 276.53125 397.878906 276.527344 397.871094 276.527344 397.871094 C 275.832031 397.351562 276.265625 395.542969 277.023438 394.484375 C 277.777344 393.429688 278.5625 393.511719 279.265625 394.003906 C 279.273438 394.007812 279.28125 394.011719 279.292969 394.019531 Z M 289.785156 379.15625 C 290.5 379.65625 289.953125 381.660156 288.910156 383.144531 C 287.867188 384.628906 286.726562 385.027344 286.015625 384.527344 C 286.007812 384.519531 286.003906 384.507812 285.996094 384.503906 C 285.328125 383.964844 286.117188 381.632812 287.148438 380.167969 C 288.1875 378.683594 289.070312 378.65625 289.785156 379.15625 Z M 202.519531 568.71875 C 202.519531 568.722656 202.515625 568.722656 202.511719 568.726562 C 202.0625 569.464844 200.816406 569.539062 199.96875 569.070312 C 199.125 568.59375 198.996094 567.722656 199.410156 566.960938 C 199.410156 566.960938 199.410156 566.957031 199.410156 566.957031 C 199.828125 566.1875 201.324219 566.214844 202.199219 566.707031 C 203.070312 567.207031 202.960938 567.96875 202.519531 568.71875 Z M 196.726562 565.332031 C 196.699219 565.382812 196.648438 565.417969 196.609375 565.460938 C 196.0625 566.054688 194.410156 565.839844 193.28125 565.257812 L 193.902344 564.054688 L 194.523438 562.847656 C 195.738281 563.472656 197.132812 564.558594 196.726562 565.332031 Z M 207.628906 570.054688 C 208.308594 570.511719 208.09375 571.238281 207.597656 571.949219 C 207.59375 571.953125 207.589844 571.953125 207.589844 571.957031 C 207.082031 572.660156 206.007812 572.75 205.355469 572.335938 C 204.714844 571.914062 204.734375 571.097656 205.183594 570.371094 C 205.191406 570.363281 205.191406 570.355469 205.195312 570.347656 C 205.660156 569.605469 206.945312 569.605469 207.628906 570.054688 Z M 213.308594 574.386719 C 214.363281 575.332031 214.1875 576.121094 213.585938 576.753906 C 212.972656 577.390625 211.460938 576.921875 210.445312 576.09375 C 209.441406 575.25 209.289062 574.269531 209.804688 573.578125 C 209.808594 573.574219 209.808594 573.570312 209.808594 573.566406 C 210.339844 572.859375 212.238281 573.453125 213.308594 574.386719 Z M 213.308594 574.386719 " fill-opacity="1" fill-rule="nonzero"/></g></svg>