<svg xmlns="http://www.w3.org/2000/svg" xmlns:xlink="http://www.w3.org/1999/xlink" width="800" zoomAndPan="magnify" viewBox="0 0 600 749.999995" height="1000" preserveAspectRatio="xMidYMid meet" version="1.0"><defs><clipPath id="036bbb361c"><path d="M 12 47.140625 L 590 47.140625 L 590 701 L 12 701 Z M 12 47.140625 " clip-rule="nonzero"/></clipPath></defs><g clip-path="url(#036bbb361c)"><path fill="#fc89a6" d="M 185.054688 655.144531 C 185.867188 655.386719 186.683594 655.640625 187.5 655.882812 C 188.617188 652.546875 189.734375 649.203125 190.851562 645.867188 C 189.917969 645.597656 188.976562 645.328125 188.042969 645.058594 C 187.042969 648.421875 186.054688 651.78125 185.054688 655.144531 Z M 404.316406 193.660156 C 405.398438 194.625 406.492188 195.59375 407.585938 196.558594 C 409.222656 194.308594 410.855469 192.054688 412.484375 189.804688 C 412.082031 189.542969 411.675781 189.28125 411.273438 189.023438 C 408.953125 190.566406 406.636719 192.113281 404.316406 193.660156 Z M 523.753906 111.652344 C 524.503906 112.316406 525.25 112.988281 525.996094 113.652344 C 528.015625 111.449219 530.039062 109.246094 532.058594 107.046875 C 531.59375 106.59375 531.140625 106.136719 530.679688 105.683594 C 528.367188 107.675781 526.058594 109.667969 523.753906 111.652344 Z M 175.550781 684.875 C 181.253906 679.851562 184.40625 674.085938 183.574219 667.152344 C 182.566406 666.851562 181.558594 666.554688 180.550781 666.253906 C 178.875 672.464844 177.210938 678.675781 175.550781 684.875 Z M 507.105469 111.535156 C 517.34375 103.289062 526.285156 97.28125 530.898438 84.039062 C 519.988281 91.726562 510.746094 97.464844 507.105469 111.535156 Z M 442.695312 151.601562 C 424.375 164.804688 421.703125 168.46875 420.601562 179.761719 C 428.507812 169.683594 435.601562 160.644531 442.695312 151.601562 Z M 108.421875 451.394531 C 109.371094 465.117188 117.011719 476.855469 130.472656 485.882812 C 122.128906 472.824219 115.269531 462.109375 108.421875 451.394531 Z M 116.808594 509.101562 C 117.773438 508.320312 118.75 507.546875 119.714844 506.765625 C 112.128906 496.378906 104.546875 485.992188 96.960938 475.605469 C 97.144531 491.359375 108.882812 498.882812 116.808594 509.101562 Z M 173.09375 543.847656 C 174.019531 543.015625 174.933594 542.183594 175.859375 541.363281 C 166.984375 528.109375 161.515625 512.605469 149.976562 501.117188 C 149.003906 501.746094 148.027344 502.386719 147.042969 503.015625 C 155.726562 516.621094 164.414062 530.234375 173.09375 543.847656 Z M 83.101562 510.875 C 84.40625 510.109375 85.707031 509.351562 87.011719 508.589844 C 77.515625 493.949219 68.019531 479.308594 58.53125 464.671875 C 57.398438 465.394531 56.269531 466.117188 55.144531 466.839844 C 64.464844 481.519531 73.785156 496.191406 83.101562 510.875 Z M 493.644531 152.59375 C 494.46875 153.28125 495.300781 153.972656 496.125 154.660156 C 509.644531 142.289062 523.167969 129.910156 536.6875 117.535156 C 519.964844 126.667969 505.9375 138.695312 493.644531 152.59375 Z M 85.574219 428.46875 C 88.40625 424.109375 91.40625 421.511719 90.960938 419.855469 C 86.910156 404.949219 79.1875 392.484375 63.328125 382.425781 C 68.121094 400.082031 77.816406 412.101562 85.574219 428.46875 Z M 473.351562 121.0625 C 474.453125 121.972656 475.558594 122.871094 476.660156 123.777344 C 483.6875 115.667969 490.324219 107.1875 497.847656 99.566406 C 505.015625 92.304688 513.410156 86.265625 520.6875 79.097656 C 527.679688 72.195312 538.59375 69.574219 543.074219 59.988281 C 517.964844 72.390625 477.789062 108.433594 473.351562 121.0625 Z M 23.050781 430.789062 C 27.882812 450.359375 47.800781 479.261719 60.699219 486.875 C 55.398438 476.855469 48.714844 467.570312 45.464844 457.210938 C 41.792969 445.511719 33.832031 438.921875 23.050781 430.789062 Z M 222.742188 544.589844 C 223.878906 545.027344 225.011719 545.453125 226.144531 545.890625 C 240.414062 511.875 254.675781 477.855469 268.945312 443.839844 C 247.75 474.949219 233.851562 509.167969 222.742188 544.589844 Z M 493.511719 116.28125 C 488.964844 118.382812 487.46875 118.632812 486.679688 119.515625 C 473.644531 133.902344 459.921875 147.742188 447.894531 162.929688 C 419.535156 198.761719 391.921875 235.171875 364.214844 271.511719 C 360.566406 276.292969 358.128906 281.996094 355.128906 287.285156 C 357.8125 287.628906 358.761719 287.15625 359.316406 286.410156 C 395.148438 237.863281 431.855469 190.0625 472.964844 145.753906 C 480.265625 137.878906 485.433594 128.003906 493.511719 116.28125 Z M 295.820312 419.386719 C 331.140625 363.242188 366.46875 307.089844 401.785156 250.945312 C 356.207031 300.746094 323.988281 358.929688 295.820312 419.386719 Z M 293.1875 400.957031 C 287.28125 404.183594 285.835938 409.496094 287.871094 416.199219 C 289.5 410.972656 291.128906 405.746094 292.761719 400.527344 C 299.558594 397.109375 301.136719 390.644531 302.382812 383.988281 C 305.1875 380.191406 307.988281 376.394531 310.792969 372.59375 C 309.761719 371.980469 308.734375 371.367188 307.703125 370.761719 C 305.703125 374.972656 303.710938 379.183594 301.710938 383.394531 C 298.859375 389.242188 296.011719 395.082031 293.1875 400.957031 Z M 384.972656 312.839844 C 378.507812 324.175781 371.929688 335.453125 365.59375 346.855469 C 339.910156 393.132812 313.449219 439 289.019531 485.925781 C 276.296875 510.359375 267.332031 536.75 256.382812 562.125 C 253.113281 569.679688 249.851562 577.605469 244.828125 583.976562 C 232.542969 599.539062 225.675781 617.394531 219.96875 635.960938 C 219.273438 638.210938 217.742188 640.203125 216.617188 642.296875 C 218.390625 632.859375 220.164062 623.4375 221.925781 614.019531 C 217.625 617.765625 215.566406 622.574219 212.617188 626.742188 C 207.566406 633.882812 210.925781 638.195312 216.859375 642.027344 C 216.859375 647.195312 216.859375 652.355469 216.859375 659.167969 C 211.609375 656.714844 207.808594 654.941406 203.464844 652.902344 C 195.53125 655.070312 191.996094 661.722656 189.40625 669.3125 C 186.582031 677.613281 183.828125 685.941406 180.667969 694.109375 C 178.757812 699.042969 175.699219 702.722656 168.035156 698.195312 C 170.53125 687.507812 173.675781 676.429688 175.609375 665.152344 C 177.421875 654.503906 186.867188 644.203125 177.726562 630.757812 C 172.019531 641.347656 167.121094 650.429688 162.222656 659.503906 C 161.128906 659.011719 160.035156 658.523438 158.945312 658.027344 C 160.449219 645.992188 169.933594 636.453125 171.523438 622.832031 C 167.390625 624.421875 163.875 625.773438 157.835938 628.09375 C 164.792969 615.699219 159.078125 608.824219 152.144531 601.261719 C 122.851562 569.304688 93.941406 536.984375 65.195312 504.539062 C 46.414062 483.335938 29.4375 460.773438 15.621094 435.914062 C 12.53125 430.359375 10.042969 425.605469 17.546875 419.277344 C 26.800781 427.378906 36.085938 435.511719 45.371094 443.644531 C 46.085938 443.277344 46.800781 442.90625 47.515625 442.535156 C 43.851562 433.386719 40.261719 424.210938 36.488281 415.109375 C 35 411.527344 32.839844 408.207031 31.472656 404.59375 C 30.664062 402.453125 29.714844 398.8125 30.730469 397.839844 C 33.160156 395.527344 37.21875 394.929688 39.683594 392.628906 C 42.011719 390.453125 36.902344 385.847656 42.859375 383.109375 C 47.941406 380.773438 51.582031 375.277344 57.640625 369.476562 C 59.75 370.964844 63.816406 373.132812 66.992188 376.207031 C 86.675781 395.335938 102.707031 417.4375 117.867188 440.160156 C 129.777344 457.992188 140.40625 476.738281 153.085938 493.984375 C 165.960938 511.488281 180.660156 527.648438 195.609375 545.664062 C 204.273438 526.933594 212.195312 509.789062 220.128906 492.65625 C 225.035156 482.058594 229.996094 471.488281 234.84375 460.863281 C 236.046875 458.21875 238.589844 454.234375 237.640625 452.863281 C 231.390625 443.8125 237.53125 436.992188 241.347656 430.191406 C 261.820312 393.652344 282.582031 357.285156 303.367188 320.921875 C 311.8125 306.140625 320.105469 291.25 329.207031 276.871094 C 362.390625 224.5 395.550781 172.121094 429.441406 120.222656 C 440.082031 103.9375 452.402344 88.625 465.082031 73.84375 C 472.90625 64.726562 482.628906 57.136719 492.03125 49.53125 C 494.585938 47.457031 499.082031 47.214844 502.703125 47.164062 C 506.710938 47.105469 510.746094 48.238281 515.679688 48.988281 C 513.863281 56.910156 505.308594 56.667969 500.972656 61.113281 C 496.265625 65.945312 491.628906 70.835938 487.082031 75.582031 C 492.097656 82.59375 492.097656 82.59375 487.390625 93.355469 C 491.097656 91.347656 493.417969 90.433594 495.34375 88.996094 C 509.761719 78.179688 523.914062 67.011719 538.5625 56.523438 C 543.511719 52.96875 549.367188 49.632812 556.351562 52.929688 C 558.234375 60.273438 550.761719 62.617188 548.710938 67.800781 C 552.988281 81.332031 546.59375 91.390625 537.511719 101.238281 C 552.980469 91.265625 566.898438 76.523438 589.753906 88.558594 C 584.703125 92.84375 581.023438 96.398438 576.929688 99.382812 C 536.511719 128.871094 499.957031 162.769531 468.242188 201.230469 C 442.558594 232.375 419.996094 266.097656 395.988281 298.628906 C 392.308594 303.621094 388.339844 308.402344 384.484375 313.285156 C 385.308594 309.410156 386.132812 305.527344 386.964844 301.628906 C 390.804688 296.746094 394.652344 291.855469 398.492188 286.964844 C 397.484375 286.332031 396.476562 285.703125 395.46875 285.074219 C 392.726562 290.671875 389.988281 296.273438 387.25 301.878906 C 374.726562 312.164062 368.902344 326.804688 361.703125 340.578125 C 366.894531 335.679688 370.433594 329.636719 374.601562 324.066406 C 377.625 320.007812 381.484375 316.5625 384.972656 312.839844 " fill-opacity="1" fill-rule="nonzero"/></g></svg>